P3
5 6
255
255 255 255 255 0 0 0 255 0 0 0 255 0 0 0
52 235 58 54 125 56 143 204 145 15 105 18 171 209 173
155 172 196 34 72 125 12 92 204 88 98 112 125 170 232
191 5 242 154 53 166 197 155 201 83 66 84 81 21 84
222 18 28 148 95 97 66 21 23 199 151 153 245 218 219
245 245 66 56 56 5 140 140 70 145 145 126 245 245 215