P3
5 7
255
255 255 255 255 255 255 255 255 255 255 255 255 255 255 255
255 255 255 0 0 0 0 0 0 0 0 0 255 255 255
255 255 255 0 0 0 255 255 255 0 0 0 255 255 255
255 255 255 0 0 0 255 255 255 0 0 0 255 255 255
255 255 255 255 255 255 255 255 255 255 255 255 255 255 255
255 255 255 0 0 0 255 255 255 255 255 255 255 255 255
255 255 255 255 255 255 255 255 255 255 255 255 255 255 255